<?xml version="1.0" encoding="utf-8"?>
<!-- Generator: Adobe Illustrator 22.0.1, SVG Export Plug-In . SVG Version: 6.00 Build 0)  -->
<svg version="1.1" id="Layer_1" xmlns="http://www.w3.org/2000/svg" xmlns:xlink="http://www.w3.org/1999/xlink" x="0px" y="0px"
	 viewBox="0 0 512 512" style="enable-background:new 0 0 512 512;" xml:space="preserve">
<style type="text/css">
	.st0{fill:#E80A0A;}
</style>
<path class="st0" d="M427.2,10.4L266.8,171c-5.7,5.7-13.2,5.7-18.9,0L87.3,10.6c-11.3-11.3-26.4-11.3-37.8,0L11.8,48.4
	c-11.3,11.3-11.3,26.4,0,37.8l160.6,160.4c5.7,5.7,5.7,13.2,0,18.9L12,426.1c-11.3,11.3-11.3,26.4,0,37.8l37.8,37.7
	c11.3,11.3,26.4,11.3,37.8,0L248,341c5.7-5.7,13.2-5.7,18.9,0l160.6,160.4c11.3,11.3,26.4,11.3,37.8,0l37.7-37.8
	c11.3-11.3,11.3-26.4,0-37.8L342.4,265.4c-5.7-5.7-5.7-13.2,0-18.9L502.8,85.9c11.3-11.3,11.3-26.4,0-37.8L465,10.4
	C453.6-1,438.5-0.9,427.2,10.4z"/>
</svg>
