<svg height="512pt" viewBox="0 -11 512.00063 512" width="512pt" xmlns="http://www.w3.org/2000/svg"><path d="m496.160156 143.792969-78.105468-78.101563c-7.808594-7.8125-20.46875-7.8125-28.289063 0l-35.59375 34.96875.308594.3125 106.058593 106.054688 35.621094-34.941406c7.808594-7.820313 7.808594-20.480469 0-28.292969zm0 0" fill="#4dbbeb"/><path d="m164.410156 297.410156 100.925782 101.070313 195.203124-191.453125-101.488281-101.488282-.3125-.308593-194.957031 191.539062zm0 0" fill="#fff5cd"/><path d="m265.289062 398.527344-.621093-.632813-101.214844-101.367187-93.46875 91.839844c-7.8125 7.808593-7.8125 20.472656 0 28.28125l45.539063 45.539062c23.429687 23.433594 61.421874 23.433594 84.851562 0zm0 0" fill="#fd3c65"/><path d="m328.480469 469.078125h-20c-5.523438 0-10 4.476563-10 10s4.476562 10 10 10h20c5.523437 0 10.003906-4.476563 10.003906-10s-4.480469-10-10.003906-10zm0 0"/><path d="m368.484375 469.078125c-5.53125 0-10 4.472656-10 10 0 5.519531 4.46875 10 10 10 5.519531 0 10-4.480469 10-10 0-5.527344-4.480469-10-10-10zm0 0"/><path d="m257.480469 310.070312c-5.53125 0-10 4.472657-10 10.003907 0 5.519531 4.46875 10 10 10 5.519531 0 10-4.480469 10-10 0-5.53125-4.480469-10.003907-10-10.003907zm0 0"/><path d="m222.476562 275.070312c-5.527343 0-10 4.46875-10 10 0 5.519532 4.472657 10 10 10 5.519532 0 10-4.480468 10-10 0-5.53125-4.480468-10-10-10zm0 0"/><path d="m185.476562 239.070312c-5.53125 0-10 4.46875-10 10 0 5.519532 4.46875 10 10 10 5.519532 0 10-4.480468 10-10 0-5.53125-4.480468-10-10-10zm0 0"/><path d="m503.230469 136.722656-127.945313-127.945312c-11.691406-11.691406-30.726562-11.691406-42.371094-.0625l-230.550781 226.511718-93.574219 91.945313c-5.667968 5.667969-8.789062 13.199219-8.789062 21.210937 0 8.011719 3.121094 15.546876 8.785156 21.210938l99.667969 99.667969c13.65625 13.65625 31.589844 20.476562 49.523437 20.476562 3.285157 0 6.570313-.234375 9.828126-.695312.222656.015625.445312.035156.671874.035156h100.003907c5.523437 0 10-4.476563 10-10s-4.476563-10-10-10h-60.847657l64.660157-63.414063 193.066406-189.363281c.929687-.464843 1.808594-1.082031 2.585937-1.855469.738282-.738281 1.332032-1.5625 1.792969-2.4375l33.425781-32.785156c.023438-.023437.046876-.046875.070313-.070312 11.691406-11.703125 11.6875-30.738282-.003906-42.429688zm-237.863281 247.71875-141.796876-142.007812 180.695313-177.53125 142.058594 142.054687zm-142.773438 70.675782-99.664062-99.664063c-1.890626-1.890625-2.929688-4.398437-2.929688-7.070313 0-2.667968 1.039062-5.179687 2.867188-7.007812l86.4375-84.921875 141.78125 141.992187-57.78125 56.671876c-19.496094 19.496093-51.214844 19.496093-70.710938 0zm366.515625-290.125-28.507813 27.957031-142.066406-142.066407 28.453125-27.957031c1.957031-1.953125 4.519531-2.929687 7.082031-2.929687s5.125.976562 7.070313 2.921875l127.949219 127.945312c3.886718 3.890625 3.894531 10.21875.019531 14.128907zm0 0"/><path d="m397.429688 186.355469c-3.792969-4.011719-10.121094-4.191407-14.136719-.394531l-104.332031 98.652343c-4.015626 3.792969-4.191407 10.125-.398438 14.136719 1.96875 2.082031 4.613281 3.128906 7.269531 3.128906 2.464844 0 4.933594-.902344 6.867188-2.730468l104.335937-98.65625c4.011719-3.792969 4.191406-10.125.394532-14.136719zm0 0"/><path d="m220.820312 228.261719 104.832032-99.152344c4.011718-3.796875 4.1875-10.125.394531-14.136719-3.796875-4.015625-10.125-4.1875-14.136719-.394531l-104.835937 99.152344c-4.011719 3.796875-4.1875 10.125-.394531 14.140625 1.96875 2.078125 4.617187 3.125 7.269531 3.125 2.464843.003906 4.9375-.90625 6.871093-2.734375zm0 0"/><path d="m257.699219 264.144531 104.335937-98.652343c4.011719-3.792969 4.1875-10.125.394532-14.136719-3.792969-4.015625-10.125-4.191407-14.136719-.398438l-104.335938 98.65625c-4.011719 3.792969-4.191406 10.125-.394531 14.136719 1.964844 2.082031 4.613281 3.128906 7.265625 3.128906 2.46875 0 4.9375-.90625 6.871094-2.734375zm0 0"/></svg>