<?xml version="1.0" encoding="utf-8"?>
<!-- Generator: Adobe Illustrator 22.0.1, SVG Export Plug-In . SVG Version: 6.00 Build 0)  -->
<svg version="1.1" id="Capa_1" xmlns="http://www.w3.org/2000/svg" xmlns:xlink="http://www.w3.org/1999/xlink" x="0px" y="0px"
	 viewBox="0 0 512 512" style="enable-background:new 0 0 512 512;" xml:space="preserve">
<style type="text/css">
	.st0{fill:#FFFFFF;}
</style>
<path class="st0" d="M106.6,363.5L16,454.1V481h26.9L496,27.9V1h-26.9L359.3,110.8"/>
<g>
	<path class="st0" d="M160.6,358.5l111.8-111.8c-5.3,1-10.8,1.6-16.4,1.6c-47.7,0-86.4-38.7-86.4-86.4c0-47.7,38.7-86.4,86.4-86.4
		c47.7,0,86.4,38.7,86.4,86.4c0,5.6-0.6,11.1-1.6,16.4l67.5-67.5C387.5,46.5,327.2,0,256,0C167.6,0,96,71.6,96,160
		c0,64.9,28.9,138.2,62.1,201L160.6,358.5z"/>
	<path class="st0" d="M188.6,414.3C224,472.1,256,512,256,512s141-175.5,158.3-323.4L188.6,414.3z"/>
</g>
</svg>
