<?xml version="1.0" encoding="utf-8"?>
<!-- Generator: Adobe Illustrator 16.0.0, SVG Export Plug-In . SVG Version: 6.00 Build 0)  -->
<!DOCTYPE svg PUBLIC "-//W3C//DTD SVG 1.1//EN" "http://www.w3.org/Graphics/SVG/1.1/DTD/svg11.dtd">
<svg version="1.1" id="Capa_1" xmlns="http://www.w3.org/2000/svg" xmlns:xlink="http://www.w3.org/1999/xlink" x="0px" y="0px"
	 width="512px" height="512px" viewBox="0 0 512 512" enable-background="new 0 0 512 512" xml:space="preserve">
<path fill="#5E92DD" d="M420.133,0H94.315C68.715,0,47.77,20.945,47.77,46.545v300.218c0,16.291,6.982,30.254,20.945,39.563
	L257.224,512l188.509-125.673c11.637-9.31,20.945-23.272,20.945-39.563V46.545C466.678,20.945,445.732,0,420.133,0z"/>
<g>
	<path fill="#FFFFFF" d="M189.892,314.299v-197.03h63.84c24.192,0,39.961,0.986,47.31,2.956
		c11.289,2.957,20.741,9.388,28.358,19.287c7.614,9.901,11.424,22.692,11.424,38.371c0,12.096-2.197,22.266-6.586,30.509
		c-4.391,8.244-9.969,14.717-16.732,19.421c-6.767,4.704-13.642,7.818-20.631,9.341c-9.498,1.882-23.251,2.822-41.261,2.822h-25.939
		v74.323H189.892z M229.674,150.6v55.91h21.773c15.679,0,26.161-1.029,31.449-3.091c5.286-2.061,9.429-5.286,12.432-9.677
		c3.001-4.39,4.503-9.496,4.503-15.322c0-7.167-2.106-13.081-6.316-17.74c-4.213-4.658-9.543-7.57-15.994-8.736
		c-4.75-0.895-14.293-1.344-28.627-1.344H229.674z"/>
</g>
</svg>
