<?xml version="1.0" encoding="utf-8"?>
<!-- Generator: Adobe Illustrator 22.0.1, SVG Export Plug-In . SVG Version: 6.00 Build 0)  -->
<svg version="1.1" id="Layer_1" xmlns="http://www.w3.org/2000/svg" xmlns:xlink="http://www.w3.org/1999/xlink" x="0px" y="0px"
	 viewBox="0 0 512 512" style="enable-background:new 0 0 512 512;" xml:space="preserve">
<style type="text/css">
	.st0{opacity:0.8;fill:#FFFFFF;enable-background:new    ;}
</style>
<path class="st0" d="M508.6,127.2c-3.3-15.6-22.5-21.3-33.7-10.1l-68.2,68.2c-12.5,12.5-32.8,12.5-45.3,0l-34.7-34.7
	c-12.5-12.5-12.5-32.8,0-45.3l68.2-68.2c11.2-11.2,5.5-30.4-10.1-33.7c-20.9-4.4-43.3-4.7-66.5,0.1C254.3,17,203.9,70,194,134.6
	c-1.3,8.6-2,17.4-2,25.4v66.8L19.3,399.4C6.9,411.9,0,428.4,0,446.1c0,17.6,6.9,34.2,19.3,46.6c0.2,0.2,0.4,0.4,0.5,0.5
	c12.3,12.1,28.5,18.7,45.7,18.8c17.9,0.1,35.1-7.4,47.7-20l172-172H352c8,0,16.8-0.6,25.4-2c64.6-9.9,117.6-60.4,131.1-124.3
	C513.3,170.5,513,148.1,508.6,127.2L508.6,127.2z M80,464c-17.7,0-32-14.3-32-32c0-17.7,14.3-32,32-32c17.7,0,32,14.3,32,32
	C112,449.7,97.7,464,80,464z"/>
</svg>
